<svg width="3230" height="570" viewBox="0 0 3230 570" fill="none" xmlns="http://www.w3.org/2000/svg">
<g filter="url(#filter0_n_1_57)">
<path fill-rule="evenodd" clip-rule="evenodd" d="M157.37 47.4558C108.51 70.0758 65.8301 107.306 36.5601 157.206L35.6001 158.876L34.6401 160.536C25.6501 176.356 18.4101 192.696 12.8601 209.346C21.0801 203.256 30.6401 199.206 41.0501 197.466C61.6701 194.696 79.1201 182.986 89.8701 164.366L157.37 47.4558Z" fill="#CF9930"/>
<path fill-rule="evenodd" clip-rule="evenodd" d="M227.33 25.8058L147.33 164.376C136.94 182.346 120.34 193.866 100.67 197.146C80.06 199.916 62.61 211.626 51.85 230.246L0 320.036C1.94 341.616 6.44 362.886 13.36 383.366C21.49 377.796 28.43 370.296 33.73 361.106L109.29 230.246C119.67 212.286 136.27 200.746 155.95 197.476C176.56 194.706 194.02 182.996 204.77 164.366L286.76 22.3558C266.8 21.3358 246.86 22.5158 227.33 25.8058Z" fill="#DCB353"/>
<path fill-rule="evenodd" clip-rule="evenodd" d="M339.62 30.3157L262.22 164.376C251.84 182.346 235.23 193.866 215.56 197.146C194.95 199.916 177.49 211.616 166.74 230.236L91.1899 361.106C81.0499 378.676 64.6199 390.526 44.5299 393.876C35.8499 395.036 27.7199 397.796 20.4299 401.986C26.6499 416.766 34.1799 431.046 42.9699 444.626L53.1599 426.976C63.5299 409.006 80.1399 397.476 99.8199 394.206C120.43 391.436 137.89 379.726 148.64 361.106L224.2 230.246C234.57 212.276 251.18 200.746 270.86 197.476C291.47 194.706 308.93 182.996 319.68 164.366L387.31 47.2257C371.75 40.0157 355.78 34.3957 339.63 30.3057" fill="#E9C772"/>
<path fill-rule="evenodd" clip-rule="evenodd" d="M430.38 72.1157L377.11 164.386C366.73 182.356 350.12 193.876 330.45 197.156C309.84 199.926 292.39 211.636 281.63 230.256L206.08 361.126C195.93 378.696 179.51 390.556 159.42 393.896C138.81 396.666 121.35 408.366 110.6 426.996L76.29 486.436C87.91 498.376 100.76 509.396 114.78 519.266L168.05 426.996C178.43 409.036 195.03 397.506 214.71 394.226C235.33 391.456 252.78 379.756 263.53 361.126L339.09 230.266C349.46 212.306 366.07 200.766 385.74 197.496C406.36 194.726 423.81 183.016 434.56 164.386L468.88 104.946C457.26 92.9957 444.42 81.9957 430.39 72.1157" fill="#F2C348"/>
<path fill-rule="evenodd" clip-rule="evenodd" d="M445.35 197.166C424.74 199.936 407.29 211.646 396.53 230.256L320.98 361.126C310.84 378.696 294.41 390.546 274.33 393.896C253.72 396.666 236.26 408.376 225.5 426.996L157.87 544.136C173.44 551.346 189.4 556.966 205.55 561.056L282.95 426.996C293.33 409.026 309.93 397.506 329.6 394.226C350.22 391.446 367.67 379.746 378.42 361.126L453.98 230.266C464.36 212.296 480.96 200.776 500.63 197.496C509.32 196.326 517.44 193.576 524.74 189.386C518.52 174.596 510.99 160.316 502.2 146.746L492.01 164.396C481.63 182.356 465.03 193.886 445.35 197.166Z" fill="#E9C772"/>
<path fill-rule="evenodd" clip-rule="evenodd" d="M511.42 230.266L435.87 361.126C425.73 378.696 409.3 390.546 389.21 393.896C368.6 396.666 351.14 408.376 340.39 426.996L258.4 569.006C278.36 570.026 298.29 568.846 317.84 565.556L397.84 426.996C408.22 409.036 424.82 397.506 444.49 394.226C465.1 391.456 482.56 379.746 493.31 361.126L545.16 271.336C543.21 249.756 538.72 228.486 531.8 208.006C523.66 213.586 516.73 221.076 511.43 230.266" fill="#DCB353"/>
<path fill-rule="evenodd" clip-rule="evenodd" d="M504.1 393.916C483.49 396.686 466.03 408.396 455.28 427.016L387.78 543.926C437.12 521.086 480.15 483.346 509.44 432.716L509.56 432.516L509.67 432.316C519.05 416.036 526.57 399.206 532.29 382.046C524.15 388.066 514.63 392.156 504.1 393.916Z" fill="#CF9930"/>
</g>
<path d="M3182.2 244.286C3197.71 258.744 3209.55 276.032 3217.72 296.148C3225.89 316.265 3229.98 338.057 3229.98 361.526C3229.98 384.786 3225.89 406.788 3217.72 427.533C3209.76 448.069 3198.02 465.671 3182.52 480.339C3165.96 496.055 3146.16 508.104 3123.11 516.485C3100.27 524.867 3074.08 529.058 3044.53 529.058C3018.97 529.058 2995.39 525.391 2973.81 518.057C2952.44 510.723 2933.47 499.722 2916.92 485.054C2900.99 471.014 2888.42 453.727 2879.2 433.191C2869.98 412.446 2865.37 389.291 2865.37 363.727C2865.37 338.581 2869.35 316.265 2877.31 296.777C2885.49 277.08 2897.64 259.583 2913.77 244.286C2929.28 229.618 2948.35 218.302 2970.98 210.339C2993.82 202.167 3019.28 198.081 3047.36 198.081C3076.7 198.081 3102.47 202.167 3124.68 210.339C3147.1 218.302 3166.28 229.618 3182.2 244.286ZM3101.74 462.108C3106.35 450.374 3109.7 436.125 3111.79 419.361C3114.1 402.597 3115.25 383.11 3115.25 360.898C3115.25 346.23 3114.2 329.466 3112.11 310.607C3110.01 291.748 3106.87 276.87 3102.68 265.974C3097.65 252.772 3090.63 242.4 3081.62 234.856C3072.82 227.313 3061.61 223.541 3047.99 223.541C3033.11 223.541 3021.17 227.627 3012.16 235.799C3003.36 243.971 2996.54 254.554 2991.73 267.545C2987.32 279.489 2984.29 293.529 2982.61 309.664C2980.93 325.589 2980.1 342.248 2980.1 359.641C2980.1 382.481 2980.83 401.445 2982.3 416.532C2983.76 431.41 2987.32 446.392 2992.98 461.48C2997.8 474.472 3004.72 484.739 3013.73 492.283C3022.74 499.827 3034.16 503.598 3047.99 503.598C3060.56 503.598 3071.35 500.141 3080.36 493.226C3089.37 486.101 3096.5 475.729 3101.74 462.108Z" fill="#CF9930"/>
<path d="M2831.74 519H2642.52V496.055C2646.5 495.636 2651.32 495.112 2656.98 494.483C2662.63 493.854 2666.93 492.807 2669.86 491.34C2674.26 489.035 2677.41 485.682 2679.29 481.282C2681.18 476.881 2682.12 470.385 2682.12 461.794V314.693C2682.12 293.319 2678.14 277.289 2670.18 266.602C2662.42 255.706 2650.9 250.258 2635.6 250.258C2627.22 250.258 2619.36 251.515 2612.03 254.03C2604.9 256.544 2597.88 260.211 2590.97 265.031C2584.89 269.222 2579.97 273.517 2576.2 277.918C2572.63 282.318 2569.6 286.195 2567.08 289.548V458.337C2567.08 465.671 2568.13 471.852 2570.22 476.881C2572.32 481.701 2575.78 485.368 2580.6 487.882C2583.95 489.768 2588.14 491.445 2593.17 492.912C2598.2 494.378 2603.12 495.426 2607.94 496.055V519H2416.84V496.055C2422.08 495.636 2427.31 495.112 2432.55 494.483C2438 493.645 2442.61 492.597 2446.38 491.34C2453.09 489.035 2457.7 485.473 2460.21 480.653C2462.73 475.834 2463.98 469.547 2463.98 461.794V278.861C2463.98 272.365 2462.31 265.974 2458.96 259.687C2455.6 253.401 2451.2 248.267 2445.75 244.286C2441.98 241.771 2437.16 239.676 2431.3 237.999C2425.64 236.323 2419.35 235.171 2412.44 234.542V211.597L2562.37 203.424L2567.08 208.139V253.715H2568.34C2574.21 248.477 2581.33 242.19 2589.71 234.856C2598.09 227.522 2605.85 221.55 2612.97 216.94C2620.72 211.911 2630.89 207.615 2643.46 204.053C2656.03 200.491 2669.44 198.71 2683.69 198.71C2717.85 198.71 2743.41 208.454 2760.39 227.941C2777.57 247.219 2786.16 272.889 2786.16 304.949V458.965C2786.16 466.718 2787.31 472.9 2789.62 477.51C2791.92 482.12 2796.22 485.787 2802.51 488.511C2805.86 489.978 2809.94 491.445 2814.76 492.912C2819.79 494.378 2825.45 495.426 2831.74 496.055V519Z" fill="#CF9930"/>
<path d="M2387.92 519H2189.27V496.055C2194.72 495.636 2200.06 495.112 2205.3 494.483C2210.54 493.855 2215.05 492.807 2218.82 491.34C2225.52 488.825 2230.24 485.263 2232.96 480.653C2235.69 475.834 2237.05 469.547 2237.05 461.794V278.861C2237.05 271.527 2235.37 265.136 2232.02 259.688C2228.67 254.03 2224.47 249.525 2219.45 246.172C2215.67 243.657 2209.91 241.247 2202.16 238.943C2194.61 236.638 2187.7 235.171 2181.41 234.542V211.597L2335.43 203.425L2340.14 208.139V457.708C2340.14 465.042 2341.72 471.328 2344.86 476.567C2348 481.596 2352.51 485.368 2358.37 487.883C2362.56 489.768 2367.18 491.445 2372.2 492.912C2377.23 494.378 2382.47 495.426 2387.92 496.055V519Z" fill="#CF9930"/>
<path d="M2160.04 519H1972.71V496.055C1977.32 495.426 1982.14 494.902 1987.16 494.483C1992.19 494.064 1996.38 493.016 1999.74 491.34C2004.35 489.245 2007.28 485.787 2008.54 480.967C2009.8 475.938 2010.42 469.547 2010.42 461.794V315.007C2010.42 293.424 2006.55 277.289 1998.79 266.602C1991.25 255.706 1980.35 250.258 1966.1 250.258C1957.09 250.258 1949.03 251.725 1941.9 254.658C1934.99 257.382 1928.6 260.84 1922.73 265.031C1916.65 269.431 1911.94 273.832 1908.58 278.232C1905.23 282.633 1902.4 286.404 1900.1 289.548V458.337C1900.1 465.88 1900.94 472.062 1902.61 476.881C1904.5 481.491 1907.85 485.158 1912.67 487.882C1916.02 489.768 1919.8 491.445 1923.99 492.912C1928.39 494.378 1933 495.426 1937.82 496.055V519H1758.34V496.055C1762.32 495.636 1767.14 495.112 1772.8 494.483C1778.46 493.854 1782.65 492.807 1785.37 491.34C1789.77 489.035 1792.6 485.682 1793.86 481.282C1795.33 476.881 1796.06 470.385 1796.06 461.794V315.007C1796.06 293.424 1792.18 277.289 1784.43 266.602C1776.89 255.706 1765.99 250.258 1751.74 250.258C1742.73 250.258 1734.66 251.725 1727.54 254.658C1720.62 257.382 1714.23 260.84 1708.36 265.031C1702.29 269.431 1697.57 273.832 1694.22 278.232C1690.87 282.633 1688.04 286.404 1685.73 289.548V458.337C1685.73 465.671 1686.68 471.747 1688.56 476.567C1690.45 481.387 1693.8 485.158 1698.62 487.882C1701.97 489.768 1705.74 491.445 1709.94 492.912C1714.34 494.378 1718.95 495.426 1723.77 496.055V519H1535.49V496.055C1540.94 495.636 1546.28 495.112 1551.52 494.483C1556.76 493.854 1561.26 492.807 1565.04 491.34C1571.74 488.825 1576.35 485.263 1578.87 480.653C1581.38 475.834 1582.64 469.547 1582.64 461.794V278.861C1582.64 272.155 1580.86 265.659 1577.29 259.373C1573.73 252.877 1569.44 247.848 1564.41 244.286C1560.63 241.771 1555.82 239.676 1549.95 237.999C1544.29 236.323 1538 235.171 1531.09 234.542V211.597L1681.02 203.424L1685.73 208.139V252.458H1686.99C1692.86 247.219 1699.77 241.038 1707.74 233.913C1715.91 226.579 1723.56 220.712 1730.68 216.312C1738.43 211.282 1748.39 207.092 1760.54 203.739C1772.69 200.386 1786 198.71 1800.46 198.71C1824.35 198.71 1844.25 203.948 1860.18 214.426C1876.31 224.693 1887.73 238.419 1894.44 255.601H1897.27C1903.35 249.944 1910.79 243.343 1919.59 235.799C1928.39 228.046 1936.45 221.864 1943.79 217.254C1951.96 212.016 1962.33 207.615 1974.91 204.053C1987.69 200.491 2001.31 198.71 2015.77 198.71C2047.41 198.71 2071.72 208.034 2088.69 226.684C2105.87 245.334 2114.46 271.841 2114.46 306.207V458.965C2114.46 466.718 2115.62 473.005 2117.92 477.824C2120.23 482.434 2124.42 485.996 2130.49 488.511C2133.85 489.978 2137.93 491.445 2142.75 492.912C2147.78 494.378 2153.54 495.426 2160.04 496.055V519Z" fill="#CF9930"/>
<path d="M1511.29 512.399C1502.07 516.381 1491.17 520.048 1478.6 523.4C1466.02 526.753 1452.72 528.429 1438.68 528.429C1412.9 528.429 1393.94 524.658 1381.79 517.114C1369.63 509.361 1361.36 498.36 1356.96 484.111H1355.07C1347.95 491.235 1341.03 497.312 1334.33 502.341C1327.83 507.37 1320.81 511.666 1313.27 515.228C1303.42 519.838 1293.88 523.191 1284.66 525.286C1275.65 527.591 1262.98 528.744 1246.63 528.744C1222.32 528.744 1201.58 521.619 1184.4 507.37C1167.21 492.911 1158.62 473.843 1158.62 450.164C1158.62 436.544 1160.51 425.019 1164.28 415.589C1168.05 405.95 1173.39 397.464 1180.31 390.129C1186.6 383.424 1193.83 377.871 1202 373.471C1210.38 369.07 1219.49 364.984 1229.34 361.212C1248.2 354.297 1270.83 347.173 1297.24 339.839C1323.64 332.295 1342.92 325.589 1355.07 319.722V289.548C1355.07 284.309 1354.65 277.394 1353.81 268.803C1352.97 260.211 1351.19 252.982 1348.47 247.115C1345.54 240.409 1340.93 234.752 1334.64 230.142C1328.35 225.532 1320.08 223.227 1309.81 223.227C1300.59 223.227 1292.84 224.589 1286.55 227.313C1280.47 229.827 1275.55 232.447 1271.78 235.171C1272.4 239.362 1274.19 245.753 1277.12 254.344C1280.05 262.935 1281.52 271.212 1281.52 279.175C1281.52 282.737 1280.58 287.243 1278.69 292.691C1276.81 297.929 1274.08 302.12 1270.52 305.264C1265.7 309.454 1260.25 312.702 1254.17 315.007C1248.31 317.312 1239.19 318.465 1226.83 318.465C1209.23 318.465 1195.92 314.274 1186.91 305.892C1177.9 297.301 1173.39 286.195 1173.39 272.574C1173.39 260.84 1178 250.363 1187.22 241.143C1196.65 231.713 1208.07 223.96 1221.49 217.883C1234.69 211.597 1249.88 206.777 1267.06 203.424C1284.24 199.862 1300.17 198.081 1314.84 198.081C1335.16 198.081 1353.81 199.338 1370.79 201.853C1387.76 204.158 1403.06 209.082 1416.68 216.626C1429.67 223.96 1439.94 234.647 1447.48 248.686C1455.23 262.516 1459.11 280.642 1459.11 303.063C1459.11 326.742 1458.59 354.821 1457.54 387.301C1456.7 419.78 1456.28 441.154 1456.28 451.421C1456.28 460.851 1457.64 468.29 1460.37 473.738C1463.3 479.186 1467.7 483.272 1473.57 485.996C1477.13 487.673 1482.68 488.721 1490.23 489.14C1497.98 489.349 1505 489.454 1511.29 489.454V512.399ZM1355.07 348.639C1343.34 352.621 1331.71 357.231 1320.18 362.469C1308.66 367.499 1299.23 372.842 1291.89 378.5C1284.14 384.367 1278.06 391.911 1273.66 401.131C1269.26 410.141 1267.06 420.828 1267.06 433.191C1267.06 449.536 1270.73 461.375 1278.06 468.709C1285.61 476.043 1294.83 479.71 1305.72 479.71C1317.25 479.71 1326.68 477.405 1334.01 472.795C1341.55 467.976 1348.16 462.108 1353.81 455.193L1355.07 348.639Z" fill="#CF9930"/>
<path d="M928.541 530.944C895.852 530.944 865.258 525.705 836.76 515.228C808.262 504.541 783.43 489.14 762.266 469.023C741.521 449.326 725.177 425.019 713.233 396.102C701.289 366.975 695.317 335.019 695.317 300.234C695.317 265.659 701.289 233.704 713.233 204.367C725.386 174.822 742.36 149.257 764.152 127.674C785.526 106.51 811.195 90.1652 841.16 78.6402C871.125 66.9056 903.186 61.0383 937.342 61.0383C962.068 61.0383 984.594 64.0767 1004.92 70.1536C1025.25 76.0208 1042.43 82.7263 1056.47 90.2699L1075.96 72.9824H1103.3L1106.13 235.799H1078.47C1062.75 186.137 1043.9 149.676 1021.89 126.417C999.891 103.157 973.069 91.5272 941.428 91.5272C902.033 91.5272 872.068 108.919 851.533 143.704C830.997 178.279 820.73 226.894 820.73 289.548C820.73 324.961 824.187 355.24 831.102 380.386C838.227 405.322 847.447 425.438 858.762 440.735C870.916 456.66 885.27 468.395 901.824 475.938C918.378 483.272 936.713 486.94 956.829 486.94C986.166 486.94 1012.25 478.977 1035.09 463.051C1058.14 447.126 1079.1 423.028 1097.96 390.758L1124.99 407.103C1115.98 425.543 1105.71 442.097 1094.19 456.765C1082.66 471.224 1069.36 483.692 1054.27 494.169C1037.71 505.694 1019.38 514.704 999.262 521.2C979.355 527.696 955.782 530.944 928.541 530.944Z" fill="#CF9930"/>
<path d="M2285.14 85.5801C2285.1 85.6405 2269.38 110.46 2269.13 117.558C2268.87 124.655 2284.08 148.715 2284.12 148.774L2283.23 176.945C2269.63 176.945 2258.53 172.549 2245.23 160.601C2233.08 149.285 2227 135.664 2227 119.739C2227 103.814 2233.08 90.1933 2245.23 78.8779C2256.67 68.4105 2270.08 62.7845 2285.46 62L2285.14 85.5801Z" fill="#CF9930"/>
<path d="M2301.51 149.387C2301.51 149.387 2286.76 126.045 2287 119.166C2287.25 112.286 2302.5 88.2073 2302.5 88.2073L2302.86 61.3028L2314.55 61.6714L2315.04 67.6911L2347.5 17.6906L2359.3 23.5875L2323.89 78.502L2411.68 0L2420.29 7.24823L2333.48 87.7159L2475.62 13.2679L2481.03 23.3418L2339.14 99.0182L2522.34 54.7917L2525.05 65.6026L2343.32 112.409L2543 114.497V126.045L2344.3 124.571L2526.03 175.186L2523.45 185.997L2337.78 138.208L2482.01 219.413L2475.37 229.732L2332.01 150.002L2417.34 234.646L2409.47 243L2322.91 159.461L2354.26 216.71L2343.81 222.73L2313.81 171.623L2313.56 176.66H2300.65L2301.51 149.387Z" fill="#CF9930"/>
<defs>
<filter id="filter0_n_1_57" x="0" y="22" width="545.16" height="547.362" filterUnits="userSpaceOnUse" color-interpolation-filters="sRGB">
<feFlood flood-opacity="0" result="BackgroundImageFix"/>
<feBlend mode="normal" in="SourceGraphic" in2="BackgroundImageFix" result="shape"/>
<feTurbulence type="fractalNoise" baseFrequency="2 2" stitchTiles="stitch" numOctaves="3" result="noise" seed="2324" />
<feColorMatrix in="noise" type="luminanceToAlpha" result="alphaNoise" />
<feComponentTransfer in="alphaNoise" result="coloredNoise1">
<feFuncA type="discrete" tableValues="1 1 1 1 1 1 1 1 1 1 1 1 1 1 1 1 1 1 1 1 1 1 1 1 1 1 1 1 1 1 1 1 1 1 1 1 1 1 1 1 1 1 1 1 1 1 1 1 1 1 1 0 0 0 0 0 0 0 0 0 0 0 0 0 0 0 0 0 0 0 0 0 0 0 0 0 0 0 0 0 0 0 0 0 0 0 0 0 0 0 0 0 0 0 0 0 0 0 0 0 "/>
</feComponentTransfer>
<feComposite operator="in" in2="shape" in="coloredNoise1" result="noise1Clipped" />
<feFlood flood-color="rgba(0, 0, 0, 0.25)" result="color1Flood" />
<feComposite operator="in" in2="noise1Clipped" in="color1Flood" result="color1" />
<feMerge result="effect1_noise_1_57">
<feMergeNode in="shape" />
<feMergeNode in="color1" />
</feMerge>
</filter>
</defs>
</svg>
