<svg viewBox="0 0 3230 548" fill="none" xmlns="http://www.w3.org/2000/svg" aria-labelledby="caminoLogoDark">
  <title id="caminoLogoDark">Camino</title>
  <path fill-rule="evenodd" clip-rule="evenodd" d="M157.37 25.456c-48.86 22.62-91.54 59.85-120.81 109.75l-.96 1.67-.96 1.66c-8.99 15.82-16.23 32.16-21.78 48.81 8.22-6.09 17.78-10.14 28.19-11.88 20.62-2.77 38.07-14.48 48.82-33.1l67.5-116.91z" fill="#F2D580"></path>
  <path fill-rule="evenodd" clip-rule="evenodd" d="M227.33 3.806L147.33 142.376c-10.39 17.97-26.99 29.49-46.66 32.77-20.61 2.77-38.06 14.48-48.82 33.1L0 298.036c1.94 21.58 6.44 42.85 13.36 63.33 8.13-5.57 15.07-13.07 20.37-22.26l75.56-130.86c10.38-17.96 26.98-29.5 46.66-32.77 20.61-2.77 38.06-14.48 48.82-33.1l81.99-142.01c-19.96-1.02-39.9.1-59.43 3.45z" fill="#ECC55F"></path>
  <path fill-rule="evenodd" clip-rule="evenodd" d="M339.62 8.316l-77.4 134.06c-10.38 17.97-26.99 29.49-46.66 32.77-20.61 2.77-38.07 14.47-48.82 33.09l-75.55 130.87c-10.14 17.57-26.57 29.42-46.66 32.77-8.68 1.16-16.81 3.92-24.1 8.11 6.22 14.78 13.75 29.06 22.54 42.64l10.19-17.65c10.37-17.97 26.98-29.5 46.66-32.77 20.61-2.77 38.07-14.48 48.82-33.1l75.56-130.86c10.37-17.97 26.98-29.5 46.66-32.77 20.61-2.77 38.07-14.48 48.82-33.1l67.63-117.14c-15.56-7.21-31.53-12.83-47.68-16.92" fill="#F9D88A"></path>
  <path fill-rule="evenodd" clip-rule="evenodd" d="M430.38 50.116l-53.27 92.27c-10.38 17.97-26.99 29.49-46.66 32.77-20.61 2.77-38.06 14.48-48.82 33.1l-75.55 130.87c-10.15 17.57-26.57 29.43-46.66 32.77-20.61 2.77-38.07 14.47-48.82 33.1l-34.31 59.44c11.62 11.94 24.47 22.96 38.49 32.83l53.27-92.27c10.38-17.96 26.98-29.49 46.66-32.77 20.62-2.77 38.07-14.47 48.82-33.1l75.56-130.86c10.37-17.96 26.98-29.5 46.67-32.77 20.62-2.77 38.07-14.48 48.82-33.1l34.32-59.44c-11.62-11.95-24.46-22.95-38.49-32.83" fill="#FFE09E"></path>
  <path fill-rule="evenodd" clip-rule="evenodd" d="M445.35 175.166c-20.61 2.77-38.06 14.48-48.82 33.09l-75.55 130.87c-10.14 17.57-26.57 29.42-46.65 32.77-20.61 2.77-38.07 14.47-48.83 33.1l-67.63 117.14c15.57 7.21 31.53 12.83 47.68 16.92l77.4-134.06c10.38-17.97 26.98-29.49 46.65-32.77 20.61-2.76 38.07-14.48 48.82-33.1l75.56-130.86c10.38-17.97 26.98-29.48 46.65-32.77 8.69-1.17 16.82-3.92 24.11-8.11-6.22-14.79-13.75-29.07-22.54-42.64l-10.19 17.65c-10.38 17.96-26.99 29.49-46.66 32.77z" fill="#F9D88A"></path>
  <path fill-rule="evenodd" clip-rule="evenodd" d="M511.42 208.266l-75.55 130.86c-10.14 17.57-26.57 29.42-46.66 32.77-20.61 2.77-38.06 14.48-48.82 33.1l-81.98 142.01c19.96 1.02 39.89-.19 59.44-3.45l80-138.56c10.38-17.96 26.98-29.49 46.65-32.77 20.61-2.77 38.07-14.48 48.82-33.1l51.85-89.79c-1.95-21.58-6.44-42.85-13.36-63.33-8.14 5.58-15.07 13.07-20.37 22.26" fill="#ECC55F"></path>
  <path fill-rule="evenodd" clip-rule="evenodd" d="M504.1 371.916c-20.61 2.77-38.07 14.48-48.82 33.1l-67.5 116.81c49.34-22.84 92.37-60.58 121.66-111.21l.12-.2.11-.2c9.38-16.28 16.9-33.11 22.62-50.27-8.14 6.02-17.7 10.11-28.19 11.97z" fill="#F2D580"></path>
  <path d="M3182.2 222.286c15.51 14.458 27.35 31.746 35.52 51.862 8.17 20.117 12.26 41.909 12.26 65.378 0 23.26-4.09 45.262-12.26 65.007-7.96 20.536-19.7 38.138-35.2 52.806-16.56 15.716-36.36 27.765-59.41 36.146-22.84 8.382-49.03 12.573-78.58 12.573-25.56 0-49.14-3.667-70.72-11.001-21.37-7.334-40.34-18.335-56.89-32.003-15.93-14.04-28.5-31.327-37.72-51.863-9.22-20.745-13.83-43.9-13.83-69.464 0-25.146 3.98-47.462 11.94-66.95 8.18-19.697 20.33-37.194 36.46-52.491 15.51-14.668 34.58-25.984 57.21-34.053 22.84-8.172 48.3-12.258 76.38-12.258 29.34 0 55.11 4.086 77.32 12.258 22.42 7.963 41.6 19.279 57.52 33.947zm-80.46 217.822c4.61-11.734 7.96-25.983 10.05-42.747 2.31-16.764 3.46-36.251 3.46-58.463 0-14.668-1.05-31.432-3.14-50.291-2.1-18.859-5.24-33.737-9.43-44.633-5.03-13.202-12.05-23.574-21.06-31.118-8.81-7.543-20.01-11.315-33.63-11.315-14.88 0-26.82 4.086-35.83 12.258-8.81 8.172-15.62 18.755-20.43 31.746-4.41 11.944-7.44 25.984-9.12 42.119-1.68 15.925-2.51 32.584-2.51 49.977 0 22.84.73 41.804 2.2 56.891 1.46 14.878 5.02 29.86 10.68 44.948 4.82 12.992 11.74 23.259 20.75 30.803 9.01 7.544 20.43 11.315 34.26 11.315 12.57 0 23.36-3.457 32.37-10.372 9.01-7.125 16.14-17.497 21.38-31.118z" fill="#FFE09E"></path>
  <path d="M2831.74 497h-189.22v-22.945c3.98-.419 8.8-.943 14.46-1.572 5.65-.629 9.95-1.676 12.88-3.143 4.4-2.305 7.55-5.658 9.43-10.058 1.89-4.401 2.83-10.897 2.83-19.488V292.693c0-21.374-3.98-37.404-11.94-48.091-7.76-10.896-19.28-16.344-34.58-16.344-8.38 0-16.24 1.257-23.57 3.772-7.13 2.514-14.15 6.181-21.06 10.791-6.08 4.191-10.99 8.486-14.76 12.887-3.57 4.4-6.6 8.277-9.12 11.63v168.789c0 7.334 1.05 13.515 3.14 18.544 2.1 4.82 5.56 8.487 10.38 11.001 3.35 1.886 7.54 3.563 12.57 5.03 5.03 1.466 9.95 2.514 14.77 3.143V497h-191.1v-22.945c5.24-.419 10.47-.943 15.71-1.572 5.45-.838 10.06-1.886 13.83-3.143 6.7-2.305 11.31-4.867 13.82-7.677 2.52-4.819 3.77-11.106 3.77-18.859V256.861c0-6.496-1.67-12.887-5.02-19.174-3.35-6.286-7.75-11.42-13.2-15.401-3.77-2.515-8.59-4.61-14.45-6.287-5.66-1.676-11.95-2.828-18.86-3.457v-22.945l149.93-8.173 4.71 4.714V231.715h1.26c5.87-5.238 12.99-11.525 21.37-18.859 8.38-7.334 16.14-13.306 23.26-17.916 7.75-5.029 17.92-9.325 30.49-12.887 12.57-3.562 25.98-5.343 40.23-5.343 34.16 0 59.72 9.744 76.7 29.231 17.18 19.278 25.77 44.948 25.77 77.008v154.651c0 7.753 1.15 13.935 3.45 18.545 2.3 4.61 6.6 8.277 12.89 11.001 3.35 1.467 7.43 3.934 12.25 5.401 5.03 1.466 10.69 2.514 16.98 3.143V497z" fill="#FFE09E"></path>
  <path d="M2387.92 497h-198.65v-22.945c5.45-.419 10.79-.943 16.03-1.572 5.24-.628 9.75-1.676 13.52-3.143 6.7-2.515 11.42-6.077 14.14-10.687 2.73-4.819 4.09-11.106 4.09-18.859V256.861c0-7.334-1.68-13.725-5.03-19.173-3.35-5.658-7.55-10.163-12.57-13.516-3.78-2.515-9.54-4.925-17.29-7.229-7.55-2.305-14.46-3.772-20.75-4.401v-22.945l154.02-8.172 4.71 4.714v249.569c0 7.334 1.58 13.62 4.72 18.859 3.14 5.039 7.65 8.811 13.51 10.326 4.2 1.885 8.81 3.562 13.83 5.029 5.03 1.466 10.27 2.514 15.72 3.143V497z" fill="#FFE09E"></path>
  <path d="M2160.04 497h-187.33v-22.945c4.61-.629 9.43-1.153 14.45-1.572 5.03-.419 9.22-1.467 12.58-3.143 4.61-2.095 7.54-5.553 8.8-10.373 1.26-5.029 1.88-11.42 1.88-19.173V293.007c0-21.583-3.87-37.718-11.63-48.405-7.54-10.896-18.44-16.344-32.68-16.344-9.02 0-17.08 1.467-24.21 4.4-7.09 2.724-13.48 6.182-19.35 10.373-6.08 4.4-10.79 8.801-14.14 13.201-3.35 4.401-6.18 8.172-8.49 11.316v168.789c0 7.544.84 13.726 2.51 18.545 1.89 4.61 5.24 8.277 10.06 11.001 3.35 1.886 7.13 3.563 11.32 5.03 4.4 1.466 9.01 2.514 13.83 3.143V497h-179.48v-22.945c3.98-.419 8.8-.943 14.46-1.572 5.66-.629 9.85-1.676 12.57-3.143 4.4-2.305 7.23-5.658 8.49-10.058 1.47-4.401 2.2-10.897 2.2-19.488V293.007c0-21.583-3.88-37.718-11.63-48.405-7.54-10.896-18.44-16.344-32.69-16.344-9.01 0-17.07 1.467-24.2 4.4-6.92 2.724-13.31 6.182-19.18 10.373-6.07 4.4-10.78 8.801-14.13 13.201-3.35 4.401-6.18 8.172-8.49 11.316v168.789c0 7.334.95 13.41 2.83 18.23 1.89 4.82 5.24 8.591 10.06 11.315 3.35 1.886 7.12 3.563 11.31 5.03 4.4 1.466 9.01 2.514 13.83 3.143V497h-188.28v-22.945c5.45-.419 10.79-.943 16.03-1.572 5.24-.629 9.74-1.676 13.52-3.143 6.7-2.515 11.31-6.077 13.82-10.687 2.51-4.819 3.77-11.106 3.77-18.859V256.861c0-6.706-1.78-13.202-5.35-19.488-3.56-6.496-7.85-11.525-12.88-15.087-3.78-2.515-8.59-4.61-14.46-6.287-5.66-1.676-11.95-2.828-18.86-3.457v-22.945l149.93-8.173 4.71 4.714v44.319h1.26c5.87-5.239 12.78-11.42 20.75-18.545 8.17-7.334 15.82-13.201 22.94-17.601 7.75-5.03 17.71-9.22 29.86-12.573 12.15-3.353 25.46-5.029 39.92-5.029 23.89 0 43.79 5.238 59.72 15.716 16.14 10.267 27.56 23.993 34.26 41.175h2.83c6.08-5.657 13.52-12.258 22.32-19.802 8.8-7.753 16.86-13.935 24.2-18.545 8.17-5.238 18.54-9.639 31.12-13.201 12.78-3.562 26.4-5.343 40.86-5.343 31.64 0 55.95 9.324 72.92 27.974 17.18 18.65 25.77 45.157 25.77 79.523v152.758c0 7.753 1.16 14.04 3.46 18.859 2.31 4.61 6.5 8.172 12.57 10.687 3.36 1.467 7.44 2.934 12.26 4.401 5.03 1.466 10.79 2.514 17.29 3.143V497z" fill="#FFE09E"></path>
  <path d="M1511.29 490.399c-9.22 3.982-20.12 7.649-32.69 11.001-12.58 3.353-25.88 5.029-39.92 5.029-25.78 0-44.74-3.771-56.89-11.315-12.16-7.753-20.43-18.754-24.83-33.003h-1.89c-7.12 7.124-14.04 13.201-20.74 18.23-6.5 5.029-13.52 9.325-21.06 12.887-9.85 4.61-19.39 7.963-28.61 10.058-9.01 2.305-21.68 3.458-38.03 3.458-24.31 0-45.05-7.125-62.23-21.374-17.19-14.459-25.78-33.527-25.78-57.206 0-13.62 1.89-25.145 5.66-34.575 3.77-9.639 9.11-17.125 16.03-22.469 6.29-6.705 13.52-12.258 21.69-16.658 8.38-4.401 17.49-8.487 27.34-12.259 18.86-6.915 41.49-14.039 67.9-21.373 26.4-7.544 45.68-14.25 57.83-20.117v-30.174c0-5.239-.42-12.154-1.26-20.745-.84-8.592-2.62-15.821-5.34-21.688-2.93-6.706-7.54-12.363-13.83-16.973-6.29-4.61-14.56-6.915-24.83-6.915-9.22 0-16.97 1.362-23.26 4.086-6.08 2.514-11 5.134-14.77 7.858.62 4.191 2.41 10.582 5.34 19.173 2.93 8.591 4.4 16.868 4.4 24.831 0 3.562-.94 8.068-2.83 13.516-2.1 5.238-4.83 9.429-8.39 12.573-4.82 4.19-10.27 7.438-16.35 9.743-5.86 2.305-14.98 3.458-27.34 3.458-17.6 0-30.93-4.191-39.94-12.573-9.01-8.591-13.52-19.697-13.52-33.318 0-11.734 4.61-22.211 13.83-31.431 9.43-9.43 20.85-17.183 34.27-23.26 13.2-6.286 28.39-11.106 45.57-14.459 17.18-3.562 33.11-5.343 47.78-5.343 20.32 0 38.97 1.257 55.95 3.772 16.97 2.305 32.27 7.229 45.89 14.773 12.99 7.334 23.26 18.021 30.8 31.85 7.75 13.83 11.63 31.956 11.63 54.377 0 23.679-.52 51.758-1.57 84.238-.84 32.479-1.26 53.853-1.26 64.12 0 9.43 1.36 16.869 4.09 22.317 2.93 5.448 7.33 9.534 13.2 12.258 3.56 1.677 9.11 2.725 16.66 3.144 7.75.209 14.77.314 21.06.314v22.945zm-156.22-163.76c-11.73 3.982-23.36 8.592-34.89 13.83-11.52 5.03-20.95 10.373-28.29 16.031-7.75 5.867-13.83 13.411-18.23 22.631-4.4 9.01-6.6 19.697-6.6 32.06 0 16.345 3.67 28.184 11 35.518 7.55 7.334 16.77 11.001 27.66 11.001 11.53 0 20.96-2.305 28.29-6.915 7.54-4.819 14.15-10.687 19.8-17.602l1.26-106.554z" fill="#FFE09E"></path>
  <path d="M928.541 508.944c-32.689 0-63.283-5.239-91.781-15.716-28.498-10.687-53.329-26.088-74.494-46.205-20.745-19.697-37.089-43.9-49.033-72.817-11.944-29.127-17.916-61.083-17.916-95.868 0-34.575 5.972-66.53 17.916-95.867 12.154-29.545 29.128-55.11 50.92-76.693 21.374-21.164 47.043-37.509 77.008-49.034 29.965-11.734 62.026-17.602 96.182-17.602 24.726 0 47.252 3.038 67.578 9.115 20.327 5.867 37.509 12.573 51.549 20.116l19.49-17.288h27.34l2.83 162.845h-27.66c-15.72-49.662-34.57-86.123-56.58-109.382-22-23.26-48.822-34.89-80.463-34.89-39.395 0-69.36 17.392-89.895 52.177-20.536 34.575-30.803 83.19-30.803 145.844 0 35.413 3.457 65.692 10.372 90.838 7.125 24.936 16.345 45.052 27.66 60.349 12.154 15.925 26.508 27.66 43.062 35.204 16.554 7.334 34.889 11.001 55.005 11.001 29.337 0 55.424-7.963 78.268-23.889 23.05-15.925 44.01-40.023 62.866-72.293l27.03 16.345c-9.01 18.44-19.28 34.994-33.84 49.662-11.525 14.459-24.831 26.927-39.92 37.404-16.56 11.525-34.89 20.535-55.006 27.031-19.907 6.496-43.48 9.744-70.721 9.744z" fill="#FFE09E"></path>
  <path d="M2323.48 138.131c12.37-11.315 18.55-24.935 18.55-40.861 0-15.925-6.08-29.546-18.23-40.861-12.15-11.316-26.72-16.974-43.69-16.974-16.97 0-31.64 5.658-43.01 16.974-12.15 11.315-18.23 24.936-18.23 40.861 0 15.926 6.08 29.546 18.23 40.861 12.37 11.106 27.04 16.659 44.01 16.659 16.76 0 31.22-5.553 43.37-16.659z" fill="#FFE09E"></path>
</svg>
