<svg viewBox="0 0 548 548" fill="none" xmlns="http://www.w3.org/2000/svg">
  <path fill-rule="evenodd" clip-rule="evenodd" d="M157.37 25.456c-48.86 22.62-91.54 59.85-120.81 109.75l-.96 1.67-.96 1.66c-8.99 15.82-16.23 32.16-21.78 48.81 8.22-6.09 17.78-10.14 28.19-11.88 20.62-2.77 38.07-14.48 48.82-33.1l67.5-116.91z" fill="#CF9930"></path>
  <path fill-rule="evenodd" clip-rule="evenodd" d="M227.33 3.806L147.33 142.376c-10.39 17.97-26.99 29.49-46.66 32.77-20.61 2.77-38.06 14.48-48.82 33.1L0 298.036c1.94 21.58 6.44 42.85 13.36 63.33 8.13-5.57 15.07-13.07 20.37-22.26l75.56-130.86c10.38-17.96 26.98-29.5 46.66-32.77 20.61-2.77 38.06-14.48 48.82-33.1l81.99-142.01c-19.96-1.02-39.9.1-59.43 3.45z" fill="#DCB353"></path>
  <path fill-rule="evenodd" clip-rule="evenodd" d="M339.62 8.316l-77.4 134.06c-10.38 17.97-26.99 29.49-46.66 32.77-20.61 2.77-38.07 14.47-48.82 33.09l-75.55 130.87c-10.14 17.57-26.57 29.42-46.66 32.77-8.68 1.16-16.81 3.92-24.1 8.11 6.22 14.78 13.75 29.06 22.54 42.64l10.19-17.65c10.37-17.97 26.98-29.5 46.66-32.77 20.61-2.77 38.07-14.48 48.82-33.1l75.56-130.86c10.37-17.97 26.98-29.5 46.66-32.77 20.61-2.77 38.07-14.48 48.82-33.1l67.63-117.14c-15.56-7.21-31.53-12.83-47.68-16.92" fill="#E9C772"></path>
  <path fill-rule="evenodd" clip-rule="evenodd" d="M430.38 50.116l-53.27 92.27c-10.38 17.97-26.99 29.49-46.66 32.77-20.61 2.77-38.06 14.48-48.82 33.1l-75.55 130.87c-10.15 17.57-26.57 29.43-46.66 32.77-20.61 2.77-38.07 14.47-48.82 33.1l-34.31 59.44c11.62 11.94 24.47 22.96 38.49 32.83l53.27-92.27c10.38-17.96 26.98-29.49 46.66-32.77 20.62-2.77 38.07-14.47 48.82-33.1l75.56-130.86c10.37-17.96 26.98-29.5 46.67-32.77 20.62-2.77 38.07-14.48 48.82-33.1l34.32-59.44c-11.62-11.95-24.46-22.95-38.49-32.83" fill="#F2C348"></path>
  <path fill-rule="evenodd" clip-rule="evenodd" d="M445.35 175.166c-20.61 2.77-38.06 14.48-48.82 33.09l-75.55 130.87c-10.14 17.57-26.57 29.42-46.65 32.77-20.61 2.77-38.07 14.47-48.83 33.1l-67.63 117.14c15.57 7.21 31.53 12.83 47.68 16.92l77.4-134.06c10.38-17.97 26.98-29.49 46.65-32.77 20.61-2.76 38.07-14.48 48.82-33.1l75.56-130.86c10.38-17.97 26.98-29.48 46.65-32.77 8.69-1.17 16.82-3.92 24.11-8.11-6.22-14.79-13.75-29.07-22.54-42.64l-10.19 17.65c-10.38 17.96-26.99 29.49-46.66 32.77z" fill="#E9C772"></path>
  <path fill-rule="evenodd" clip-rule="evenodd" d="M511.42 208.266l-75.55 130.86c-10.14 17.57-26.57 29.42-46.66 32.77-20.61 2.77-38.06 14.48-48.82 33.1l-81.98 142.01c19.96 1.02 39.89-.19 59.44-3.45l80-138.56c10.38-17.96 26.98-29.49 46.65-32.77 20.61-2.77 38.07-14.48 48.82-33.1l51.85-89.79c-1.95-21.58-6.44-42.85-13.36-63.33-8.14 5.58-15.07 13.07-20.37 22.26" fill="#DCB353"></path>
  <path fill-rule="evenodd" clip-rule="evenodd" d="M504.1 371.916c-20.61 2.77-38.07 14.48-48.82 33.1l-67.5 116.81c49.34-22.84 92.37-60.58 121.66-111.21l.12-.2.11-.2c9.38-16.28 16.9-33.11 22.62-50.27-8.14 6.02-17.7 10.11-28.19 11.97z" fill="#CF9930"></path>
</svg>
